<mxfile host="app.diagrams.net" agent="Mozilla/5.0 (Macintosh; Intel Mac OS X 10_15_7) AppleWebKit/537.36 (KHTML, like Gecko) Chrome/129.0.0.0 Safari/537.36" version="24.7.16">
  <diagram name="Page-1" id="6XYYR7FXBOIsJ6WG3Qy4">
    <mxGraphModel dx="955" dy="485" grid="1" gridSize="10" guides="1" tooltips="1" connect="1" arrows="1" fold="1" page="1" pageScale="1" pageWidth="850" pageHeight="1100" math="0" shadow="0">
      <root>
        <mxCell id="0" />
        <mxCell id="1" parent="0" />
        <mxCell id="ggyY5ZBPQ2AR44khdNM4-1" value="" style="rounded=0;whiteSpace=wrap;html=1;" vertex="1" parent="1">
          <mxGeometry x="80" y="80" width="560" height="480" as="geometry" />
        </mxCell>
        <mxCell id="ggyY5ZBPQ2AR44khdNM4-2" value="&lt;b&gt;ESP32&lt;/b&gt;" style="text;html=1;align=center;verticalAlign=middle;whiteSpace=wrap;rounded=0;" vertex="1" parent="1">
          <mxGeometry x="80" y="80" width="60" height="30" as="geometry" />
        </mxCell>
        <mxCell id="ggyY5ZBPQ2AR44khdNM4-28" style="edgeStyle=orthogonalEdgeStyle;rounded=0;orthogonalLoop=1;jettySize=auto;html=1;exitX=1;exitY=0.5;exitDx=0;exitDy=0;entryX=0;entryY=0.5;entryDx=0;entryDy=0;" edge="1" parent="1" source="ggyY5ZBPQ2AR44khdNM4-3" target="ggyY5ZBPQ2AR44khdNM4-24">
          <mxGeometry relative="1" as="geometry" />
        </mxCell>
        <mxCell id="ggyY5ZBPQ2AR44khdNM4-3" value="Sample ADC at 4500 Hz" style="rounded=0;whiteSpace=wrap;html=1;" vertex="1" parent="1">
          <mxGeometry x="240" y="120" width="80" height="60" as="geometry" />
        </mxCell>
        <mxCell id="ggyY5ZBPQ2AR44khdNM4-30" style="edgeStyle=orthogonalEdgeStyle;rounded=0;orthogonalLoop=1;jettySize=auto;html=1;exitX=0.5;exitY=1;exitDx=0;exitDy=0;entryX=0.5;entryY=0;entryDx=0;entryDy=0;" edge="1" parent="1" source="ggyY5ZBPQ2AR44khdNM4-6" target="ggyY5ZBPQ2AR44khdNM4-10">
          <mxGeometry relative="1" as="geometry" />
        </mxCell>
        <mxCell id="ggyY5ZBPQ2AR44khdNM4-6" value="Average over last 10 inputs (Hysteresis)" style="rounded=0;whiteSpace=wrap;html=1;" vertex="1" parent="1">
          <mxGeometry x="510" y="120" width="100" height="60" as="geometry" />
        </mxCell>
        <mxCell id="ggyY5ZBPQ2AR44khdNM4-12" style="edgeStyle=orthogonalEdgeStyle;rounded=0;orthogonalLoop=1;jettySize=auto;html=1;exitX=1;exitY=0.5;exitDx=0;exitDy=0;entryX=0;entryY=0.5;entryDx=0;entryDy=0;" edge="1" parent="1" source="ggyY5ZBPQ2AR44khdNM4-10" target="ggyY5ZBPQ2AR44khdNM4-11">
          <mxGeometry relative="1" as="geometry" />
        </mxCell>
        <mxCell id="ggyY5ZBPQ2AR44khdNM4-22" value="No" style="edgeLabel;html=1;align=center;verticalAlign=middle;resizable=0;points=[];" vertex="1" connectable="0" parent="ggyY5ZBPQ2AR44khdNM4-12">
          <mxGeometry x="-0.2" y="2" relative="1" as="geometry">
            <mxPoint as="offset" />
          </mxGeometry>
        </mxCell>
        <mxCell id="ggyY5ZBPQ2AR44khdNM4-17" style="edgeStyle=orthogonalEdgeStyle;rounded=0;orthogonalLoop=1;jettySize=auto;html=1;exitX=0.5;exitY=1;exitDx=0;exitDy=0;entryX=0.5;entryY=0;entryDx=0;entryDy=0;" edge="1" parent="1" source="ggyY5ZBPQ2AR44khdNM4-10" target="ggyY5ZBPQ2AR44khdNM4-16">
          <mxGeometry relative="1" as="geometry" />
        </mxCell>
        <mxCell id="ggyY5ZBPQ2AR44khdNM4-23" value="Yes" style="edgeLabel;html=1;align=center;verticalAlign=middle;resizable=0;points=[];" vertex="1" connectable="0" parent="ggyY5ZBPQ2AR44khdNM4-17">
          <mxGeometry x="0.13" y="-4" relative="1" as="geometry">
            <mxPoint as="offset" />
          </mxGeometry>
        </mxCell>
        <mxCell id="ggyY5ZBPQ2AR44khdNM4-10" value="Is the value &amp;gt; threshold?" style="rhombus;whiteSpace=wrap;html=1;" vertex="1" parent="1">
          <mxGeometry x="365" y="230" width="110" height="120" as="geometry" />
        </mxCell>
        <mxCell id="ggyY5ZBPQ2AR44khdNM4-15" style="edgeStyle=orthogonalEdgeStyle;rounded=0;orthogonalLoop=1;jettySize=auto;html=1;exitX=0.5;exitY=1;exitDx=0;exitDy=0;entryX=0.5;entryY=0;entryDx=0;entryDy=0;" edge="1" parent="1" source="ggyY5ZBPQ2AR44khdNM4-11" target="ggyY5ZBPQ2AR44khdNM4-14">
          <mxGeometry relative="1" as="geometry" />
        </mxCell>
        <mxCell id="ggyY5ZBPQ2AR44khdNM4-11" value="Turn on LED" style="rounded=0;whiteSpace=wrap;html=1;" vertex="1" parent="1">
          <mxGeometry x="520" y="260" width="90" height="60" as="geometry" />
        </mxCell>
        <mxCell id="ggyY5ZBPQ2AR44khdNM4-31" style="edgeStyle=orthogonalEdgeStyle;rounded=0;orthogonalLoop=1;jettySize=auto;html=1;exitX=0.5;exitY=1;exitDx=0;exitDy=0;entryX=0.25;entryY=1;entryDx=0;entryDy=0;" edge="1" parent="1" source="ggyY5ZBPQ2AR44khdNM4-14" target="ggyY5ZBPQ2AR44khdNM4-3">
          <mxGeometry relative="1" as="geometry">
            <Array as="points">
              <mxPoint x="565" y="490" />
              <mxPoint x="260" y="490" />
            </Array>
          </mxGeometry>
        </mxCell>
        <mxCell id="ggyY5ZBPQ2AR44khdNM4-14" value="Send SMS alert" style="rounded=0;whiteSpace=wrap;html=1;" vertex="1" parent="1">
          <mxGeometry x="520" y="360" width="90" height="60" as="geometry" />
        </mxCell>
        <mxCell id="ggyY5ZBPQ2AR44khdNM4-18" style="edgeStyle=orthogonalEdgeStyle;rounded=0;orthogonalLoop=1;jettySize=auto;html=1;" edge="1" parent="1" source="ggyY5ZBPQ2AR44khdNM4-16">
          <mxGeometry relative="1" as="geometry">
            <mxPoint x="300" y="180" as="targetPoint" />
            <Array as="points">
              <mxPoint x="300" y="430" />
            </Array>
          </mxGeometry>
        </mxCell>
        <mxCell id="ggyY5ZBPQ2AR44khdNM4-16" value="Turn off LED" style="rounded=0;whiteSpace=wrap;html=1;" vertex="1" parent="1">
          <mxGeometry x="360" y="400" width="120" height="60" as="geometry" />
        </mxCell>
        <mxCell id="ggyY5ZBPQ2AR44khdNM4-21" style="edgeStyle=orthogonalEdgeStyle;rounded=0;orthogonalLoop=1;jettySize=auto;html=1;entryX=0;entryY=0.5;entryDx=0;entryDy=0;" edge="1" parent="1" source="ggyY5ZBPQ2AR44khdNM4-20" target="ggyY5ZBPQ2AR44khdNM4-3">
          <mxGeometry relative="1" as="geometry">
            <Array as="points">
              <mxPoint x="160" y="150" />
            </Array>
          </mxGeometry>
        </mxCell>
        <mxCell id="ggyY5ZBPQ2AR44khdNM4-20" value="Initialize output buffers" style="rounded=0;whiteSpace=wrap;html=1;" vertex="1" parent="1">
          <mxGeometry x="100" y="180" width="120" height="60" as="geometry" />
        </mxCell>
        <mxCell id="ggyY5ZBPQ2AR44khdNM4-29" style="edgeStyle=orthogonalEdgeStyle;rounded=0;orthogonalLoop=1;jettySize=auto;html=1;" edge="1" parent="1" source="ggyY5ZBPQ2AR44khdNM4-24" target="ggyY5ZBPQ2AR44khdNM4-6">
          <mxGeometry relative="1" as="geometry" />
        </mxCell>
        <mxCell id="ggyY5ZBPQ2AR44khdNM4-24" value="Apply difference equation" style="rounded=0;whiteSpace=wrap;html=1;" vertex="1" parent="1">
          <mxGeometry x="370" y="120" width="100" height="60" as="geometry" />
        </mxCell>
      </root>
    </mxGraphModel>
  </diagram>
</mxfile>
